<svg width="800" height="440" viewBox="0 0 800 440" fill="none" xmlns="http://www.w3.org/2000/svg">
<g clip-path="url(#clip0_14_9)">
<g filter="url(#filter0_f_14_9)">
<ellipse cx="809" cy="159.5" rx="111" ry="231.5" fill="#5B1FFD"/>
</g>
<g filter="url(#filter1_f_14_9)">
<path d="M1032 443.5C1032 560.861 913.579 656 767.5 656C621.421 656 503 560.861 503 443.5C503 326.139 621.421 231 767.5 231C913.579 231 1032 326.139 1032 443.5Z" fill="#5B1FFD"/>
</g>
<g filter="url(#filter2_f_14_9)">
<path d="M923 472.5C923 533.527 872.632 583 810.5 583C748.368 583 698 533.527 698 472.5C698 411.473 748.368 362 810.5 362C872.632 362 923 411.473 923 472.5Z" fill="#AF8AFA"/>
</g>
</g>
<defs>
<filter id="filter0_f_14_9" x="398" y="-372" width="822" height="1063" filterUnits="userSpaceOnUse" color-interpolation-filters="sRGB">
<feFlood flood-opacity="0" result="BackgroundImageFix"/>
<feBlend mode="normal" in="SourceGraphic" in2="BackgroundImageFix" result="shape"/>
<feGaussianBlur stdDeviation="150" result="effect1_foregroundBlur_14_9"/>
</filter>
<filter id="filter1_f_14_9" x="303" y="31" width="929" height="825" filterUnits="userSpaceOnUse" color-interpolation-filters="sRGB">
<feFlood flood-opacity="0" result="BackgroundImageFix"/>
<feBlend mode="normal" in="SourceGraphic" in2="BackgroundImageFix" result="shape"/>
<feGaussianBlur stdDeviation="100" result="effect1_foregroundBlur_14_9"/>
</filter>
<filter id="filter2_f_14_9" x="598" y="262" width="425" height="421" filterUnits="userSpaceOnUse" color-interpolation-filters="sRGB">
<feFlood flood-opacity="0" result="BackgroundImageFix"/>
<feBlend mode="normal" in="SourceGraphic" in2="BackgroundImageFix" result="shape"/>
<feGaussianBlur stdDeviation="50" result="effect1_foregroundBlur_14_9"/>
</filter>
<clipPath id="clip0_14_9">
<rect width="800" height="440" fill="white"/>
</clipPath>
</defs>
</svg>
